<svg xmlns="http://www.w3.org/2000/svg" viewBox="0 0 512 512">
    <defs>
        <linearGradient id="bearGradient" x1="0%" y1="0%" x2="100%" y2="100%">
            <stop offset="0%" stop-color="#8B5E3C"/>
            <stop offset="100%" stop-color="#704214"/>
        </linearGradient>
    </defs>
    <circle cx="256" cy="256" r="256" fill="#f5f0e8"/>
    <path fill="url(#bearGradient)" d="M256 42c-19 0-36.7 7.4-50 19.8C192.7 49.4 175 42 156 42c-48.6 0-88 39.4-88 88 0 30.4 15.4 57.2 38.9 73C106.3 195.5 98 189 88 182c-1.4 7.5-2 15.1-2 23 0 70.7 57.3 128 128 128 11 0 21.8-1.4 32-4v8h-48c-17.7 0-32 14.3-32 32v56c0 4.4 3.6 8 8 8h48c4.4 0 8-3.6 8-8v-24h48v24c0 4.4 3.6 8 8 8h48c4.4 0 8-3.6 8-8v-56c0-17.7-14.3-32-32-32h-48v-8c10.2 2.6 21 4 32 4 70.7 0 128-57.3 128-128 0-7.9-.6-15.5-2-23-10 7-18.3 13.5-18.9 21-23.5-15.8-38.9-42.6-38.9-73 0-48.6-39.4-88-88-88zM156 90a40 40 0 110 80 40 40 0 010-80zm200 0a40 40 0 110 80 40 40 0 010-80zM196 192a16 16 0 100 32 16 16 0 000-32zm120 0a16 16 0 100 32 16 16 0 000-32zm-120 80h120s-20 32-60 32-60-32-60-32z" transform="scale(0.8) translate(51.2, 51.2)"/>
</svg> 