<svg class="bear-logo" viewBox="0 0 512 512" xmlns="http://www.w3.org/2000/svg">
    <defs>
        <linearGradient id="bearGradient" x1="0%" y1="0%" x2="100%" y2="100%">
            <stop offset="0%" stop-color="#8b6d5a"></stop>
            <stop offset="100%" stop-color="#a68b7b"></stop>
        </linearGradient>
    </defs>
    <path fill="url(#bearGradient)" d="M256 128c-39.8 0-74.2 23.3-90.5 56.9-8.6-14.7-24.4-24.9-42.8-24.9-27.5 0-49.7 22.2-49.7 49.7v64c0 25.6 19.2 46.6 44.1 49.3 8.2 21.1 22.8 38.1 41.5 48.8c0 0 0 0 0 0c16.6 9.8 34.2 15.2 52.6 15.2s36-5.4 52.6-15.2c0 0 0 0 0 0c18.7-10.7 33.3-27.7 41.5-48.8c24.9-2.7 44.1-23.7 44.1-49.3v-64c0-27.5-22.2-49.7-49.7-49.7c-18.4 0-34.2 10.2-42.8 24.9C330.2 151.3 295.8 128 256 128zm-43.5 96c17.8 0 32-14.2 32-32c0-2.7-2.2-4.9-4.9-4.9s-4.9 2.2-4.9 4.9c0 12.3-9.9 22.2-22.2 22.2c-2.7 0-4.9 2.2-4.9 4.9s2.2 4.9 4.9 4.9zm87 0c17.8 0 32-14.2 32-32c0-2.7-2.2-4.9-4.9-4.9s-4.9 2.2-4.9 4.9c0 12.3-9.9 22.2-22.2 22.2c-2.7 0-4.9 2.2-4.9 4.9s2.2 4.9 4.9 4.9zM305.7 308c-6.2 14.3-16.4 25.9-28.9 33.9l0 0c-12.3 7.1-25.5 10.7-38.8 10.7s-26.5-3.6-38.8-10.7l0 0c-12.5-8-22.7-19.5-28.9-33.9c-1.8-4.1-6.8-2.9-7.3 1.5c-.5 4.1-.3 8.3 .8 12.5c6.5 24.7 24 45 47 56.3s51.6 11.3 74.6 0s40.5-31.6 47-56.3c1.1-4.3 1.2-8.5 .8-12.5c-.5-4.4-5.5-5.6-7.3-1.5h-.1zM64 128a64 64 0 1 0 0-128 64 64 0 1 0 0 128zm384 0a64 64 0 1 0 0-128 64 64 0 1 0 0 128z"></path>
</svg> 